<svg width="117" height="115" viewBox="0 0 117 115" fill="none" xmlns="http://www.w3.org/2000/svg">
<path d="M98.377 44.508L92.798 34.064L62.9504 91.0189H92.1006V80.8534H79.4084L98.377 44.508Z" fill="url(#paint0_linear_755_1565)"/>
<path d="M18.2583 44.508L23.8373 34.064L53.6848 91.0189H24.5347V80.8534H37.2268L18.2583 44.508Z" fill="url(#paint1_linear_755_1565)"/>
<path d="M52.7311 90.8827L12.8081 14.1707V12.8081H103.282V14.1707L63.3591 90.8827H91.1553V80.7998H103.282V102.465H12.8081V80.7998H24.9349V90.8827H52.7311Z" fill="#F0F0F0"/>
<path fill-rule="evenodd" clip-rule="evenodd" d="M30.7939 23.981L57.9089 75.3494L85.4326 23.981H30.7939ZM44.1469 31.6113L57.8058 57.4999L71.6706 31.6113H44.1469Z" fill="url(#paint2_linear_755_1565)"/>
<path fill-rule="evenodd" clip-rule="evenodd" d="M0 0H116.363V115H0V0ZM103.282 12.8081H12.8081V102.464H103.282V12.8081Z" fill="url(#paint3_linear_755_1565)"/>
<defs>
<linearGradient id="paint0_linear_755_1565" x1="80.6637" y1="34.064" x2="80.6637" y2="91.0189" gradientUnits="userSpaceOnUse">
<stop stop-color="#0891B2"/>
<stop offset="0.39" stop-color="#7C3AED"/>
</linearGradient>
<linearGradient id="paint1_linear_755_1565" x1="35.9716" y1="34.064" x2="35.9716" y2="91.0189" gradientUnits="userSpaceOnUse">
<stop stop-color="#0891B2"/>
<stop offset="0.39" stop-color="#7C3AED"/>
</linearGradient>
<linearGradient id="paint2_linear_755_1565" x1="58.1133" y1="23.981" x2="58.1133" y2="75.3494" gradientUnits="userSpaceOnUse">
<stop stop-color="#0891B2"/>
<stop offset="0.39" stop-color="#7C3AED"/>
</linearGradient>
<linearGradient id="paint3_linear_755_1565" x1="58.1813" y1="0" x2="58.1813" y2="115" gradientUnits="userSpaceOnUse">
<stop stop-color="#0891B2"/>
<stop offset="0.39" stop-color="#7C3AED"/>
</linearGradient>
</defs>
</svg>
